<?xml version="1.0" encoding="iso-8859-1"?>
<!-- Generator: Adobe Illustrator 16.0.0, SVG Export Plug-In . SVG Version: 6.00 Build 0)  -->
<!DOCTYPE svg PUBLIC "-//W3C//DTD SVG 1.1//EN" "http://www.w3.org/Graphics/SVG/1.1/DTD/svg11.dtd">
<svg xmlns="http://www.w3.org/2000/svg" xmlns:xlink="http://www.w3.org/1999/xlink" version="1.1" id="Capa_1" x="0px" y="0px" width="512px" height="512px" viewBox="0 0 21.177 21.177" style="enable-background:new 0 0 21.177 21.177;" xml:space="preserve">
<g>
	<path d="M20.305,9.675c-0.777,0.939-1.399,0.64-1.954-0.221c-0.147-0.23-0.34-0.325-0.593-0.372   c-1.365-0.258-1.353-0.948-0.669-1.955c0.315-0.464,0.732-1.201,0.236-1.603c-0.767-0.622-1.631-1.198-2.648-1.417   c-0.551,0.573-1.14,0.512-1.765,0.094c-0.791-0.526-1.439-0.636-1.331,0.635c0.027,0.316-0.044,0.552-0.259,0.422   c-0.867-0.519-1.616,0.451-2.526,0.137C8.554,5.311,7.673,4.953,7.264,5.617C6.825,6.327,6.319,6.44,5.551,6.013   C4.873,5.636,4.195,6.148,4.501,6.74c0.364,0.7-0.025,0.943-0.338,1.172c-1.45,1.061-1.931,2.901-3.296,4.021   C0.73,12.045,0.69,12.276,0.61,12.454c-0.339,0.749,0.408,1.745-0.578,2.394c-0.149,0.1,0.256,0.495,0.58,0.37   c0.399-0.153,0.713-0.34,0.841-0.889c0.209-0.892,1.15-0.617,1.78-0.804c0.562-0.166,0.625,0.364,0.684,0.723   c0.385,2.354,1.123,2.882,3.271,2.316c0.229-0.062,0.507-0.137,0.713-0.064c1.386,0.48,2.088-0.65,2.263-1.457   c0.195-0.903,0.714-1.249,1.204-1.782c0.456,0.39,0.029,0.887,0.331,1.282c0.701,0.923,1.963,1.372,2.212,2.686   c0.037,0.195,0.591,0.138,0.537-0.102c-0.301-1.304,0.854-2.041,1.124-3.107c0.088-0.353-0.287-0.881,0.216-1.036   c0.537-0.17,0.556,0.396,0.7,0.739c0.154,0.364,0.492,0.603,0.818,0.435c0.89-0.461,1.554-0.104,2.239,0.527   c-0.057-0.559,0.28-1.074-0.202-1.506c-0.382-0.34-0.095-0.611,0.117-0.877c0.264-0.328,0.449-0.144,0.711,0.06   c0.286,0.219,1.042,0.295,0.938,0.063c-0.412-0.91,0.199-1.72,0.039-2.545C21.056,9.408,20.687,9.214,20.305,9.675z" fill="#ffe484"/>
	<path d="M14.626,3.841c-0.031-0.014-0.08,0.024-0.121,0.036c0.063,0.062,0.127,0.122,0.19,0.185   C14.753,3.971,14.747,3.891,14.626,3.841z" fill="#ffe484"/>
	<path d="M14.695,4.062c-0.012,0.015-0.005,0.029-0.021,0.044l-0.001,0.002c0.001,0,0.002,0,0.003,0   c0.012-0.012,0.024-0.015,0.036-0.028C14.706,4.074,14.7,4.068,14.695,4.062z" fill="#ffe484"/>
</g>
</svg>
